<svg width="79" height="102" viewBox="0 0 79 102" fill="none" xmlns="http://www.w3.org/2000/svg">
<path d="M78 51C78 78.867 60.5403 101 39.5 101C18.4597 101 1 78.867 1 51C1 23.133 18.4597 1 39.5 1C60.5403 1 78 23.133 78 51Z" stroke="black" stroke-width="2"/>
<path d="M38.2929 95.7071C38.6834 96.0976 39.3166 96.0976 39.7071 95.7071L46.0711 89.3431C46.4616 88.9526 46.4616 88.3195 46.0711 87.9289C45.6805 87.5384 45.0474 87.5384 44.6569 87.9289L39 93.5858L33.3431 87.9289C32.9526 87.5384 32.3195 87.5384 31.9289 87.9289C31.5384 88.3195 31.5384 88.9526 31.9289 89.3431L38.2929 95.7071ZM38 61V95H40V61H38Z" fill="black"/>
</svg>
